<svg width="64" height="64" viewBox="0 0 64 64" fill="none" xmlns="http://www.w3.org/2000/svg">
<rect width="64" height="64" rx="32" fill="#96BFFF"/>
<path d="M51.9492 18.8613C51.526 18.8613 51.0267 18.9206 50.4512 19.0391C49.8926 19.1576 49.3086 19.3353 48.6992 19.5723L48.9531 45.5977C48.9531 45.8008 49.2578 46.0547 49.8672 46.3594C50.4935 46.6471 51.416 46.9095 52.6348 47.1465V49H39.3809V47.1465C40.5319 46.9095 41.4375 46.6556 42.0977 46.3848C42.7747 46.097 43.1133 45.8346 43.1133 45.5977L42.9102 24.9551L32.1445 49H29.7578L19.1953 25.0059L18.9922 45.5977C18.9922 45.8008 19.2715 46.0547 19.8301 46.3594C20.3887 46.6471 21.2773 46.9095 22.4961 47.1465V49H11.832V47.1465C13 46.9095 13.8717 46.6556 14.4473 46.3848C15.0228 46.097 15.3105 45.8346 15.3105 45.5977L15.5645 19.75C14.972 19.4115 14.3626 19.1829 13.7363 19.0645C13.127 18.929 12.5768 18.8613 12.0859 18.8613V17.0078H20.8711C21.0404 17.0078 21.1927 17.0332 21.3281 17.084C21.4635 17.1348 21.5905 17.2363 21.709 17.3887C21.8444 17.541 21.9883 17.7611 22.1406 18.0488C22.293 18.3197 22.4707 18.6836 22.6738 19.1406L32.0176 40.3418L41.5391 19.1406C41.7591 18.6328 41.9453 18.2435 42.0977 17.9727C42.25 17.6849 42.3939 17.4733 42.5293 17.3379C42.6647 17.1855 42.7917 17.0924 42.9102 17.0586C43.0456 17.0247 43.1895 17.0078 43.3418 17.0078H51.9492V18.8613Z" fill="white"/>
</svg>
