<svg width="175" height="175" viewBox="0 0 175 175" fill="none" xmlns="http://www.w3.org/2000/svg">
<path fill-rule="evenodd" clip-rule="evenodd" d="M87.4992 1C135.823 1 175 39.7275 175 87.5002C175 135.273 135.823 174 87.4992 174C39.1733 174 0 135.273 0 87.5002C0 39.7275 39.1733 1 87.4992 1ZM38.4896 42.1437C39.0799 42.1437 39.6422 42.2652 40.1494 42.4839L40.1563 42.4775C42.6914 43.474 45.6891 44.5085 48.2595 45.13C58.7516 47.7037 69.4677 49.3106 81.0562 49.7119C98.5997 50.3698 117.809 49.9024 140.092 49.7512L140.114 49.7494H140.22V49.7479C142.516 49.7479 144.374 51.5865 144.374 53.8546C144.374 55.7734 143.043 57.385 141.241 57.8359C104.42 70.9232 73.6749 88.8504 49.858 121.113C48.0915 123.519 46.2715 126.013 44.6344 128.519C44.5862 128.597 44.5395 128.673 44.4864 128.749L44.483 128.754C43.7329 129.823 42.4835 130.523 41.0661 130.523C38.7723 130.523 36.9124 128.685 36.9124 126.417C36.9124 126.191 36.9321 125.971 36.9655 125.756L36.9773 125.69C39.9051 108.757 43.6881 92.174 50.7333 76.7004C45.7658 69.0186 39.8816 60.1857 34.7562 48.0871L34.768 48.074C34.4918 47.5245 34.3355 46.906 34.3355 46.25C34.3355 43.9823 36.1953 42.1437 38.4896 42.1437ZM53.9836 145.377C53.8755 145.588 53.7506 145.793 53.6094 145.982V145.983C52.8541 146.999 51.6347 147.661 50.2589 147.661C47.9667 147.661 46.1068 145.823 46.1068 143.555C46.1068 142.783 46.3212 142.064 46.6956 141.448H46.6941L46.7089 141.426L50.0977 135.942C74.2406 98.9545 104.928 79.9812 144.625 65.8316C144.893 65.7019 145.176 65.598 145.473 65.5275H145.478C145.791 65.4532 146.116 65.4138 146.45 65.4138C148.744 65.4138 150.604 67.2524 150.604 69.5205C150.604 71.2372 149.536 72.7093 148.022 73.3211V73.3225L147.994 73.3323C147.9 73.3687 147.806 73.4032 147.709 73.4328C106.977 87.8306 78.0319 106.171 53.9836 145.377Z" fill="#00843E"/>
</svg>
