<svg width="24" height="24" viewBox="0 0 24 24" fill="none" xmlns="http://www.w3.org/2000/svg">
<path d="M11.7889 2C6.37483 2 1.96481 6.489 1.96481 12C1.96481 17.511 6.37483 22 11.7889 22C17.2029 22 21.6129 17.511 21.6129 12C21.6129 6.489 17.2029 2 11.7889 2ZM11.7889 4C16.141 4 19.6481 7.56988 19.6481 12C19.6481 16.4301 16.141 20 11.7889 20C7.43669 20 3.92962 16.4301 3.92962 12C3.92962 7.56988 7.43669 4 11.7889 4ZM10.8065 7V9H12.7713V7H10.8065ZM10.8065 11V17H12.7713V11H10.8065Z" fill="#494949"/>
</svg>
